<?xml version="1.0" encoding="iso-8859-1"?>
<!-- Uploaded to: SVG Repo, www.svgrepo.com, Generator: SVG Repo Mixer Tools -->
<svg xmlns="http://www.w3.org/2000/svg" xmlns:xlink="http://www.w3.org/1999/xlink" version="1.1" id="Capa_1"  viewBox="0 0 455 455" xml:space="preserve" width="512" height="512">
<g>
	<path style="fill:#FF3B3B;" d="M362.5,235v220V235z"/>
	<polygon style="fill:#FF3B3B;" points="382.5,275 362.5,455 275,455 227.5,425 180,455 62.5,455 62.5,295  "/>
	<polygon style="fill:#CB2E3E;" points="62.5,235 62.5,295 362.5,295 362.5,455 392.5,455 392.5,235  "/>
	<path style="fill:#FF9387;" d="M412.5,265V140V265z"/>
	<polygon style="fill:#FF6761;" points="412.5,140 412.5,265 382.5,265 362.5,202.5 382.5,140  "/>
	<polygon style="fill:#FF9387;" points="382.5,140 382.5,265 275,265 255,197.5 275,120 326.53,140  "/>
	<polygon style="fill:#FF9387;" points="42.5,140 42.5,265 180,265 200,197.5 180,120 128.47,140  "/>
	<polygon style="fill:#FFB751;" points="275,235 275,295 227.5,325 180,295 180,235  "/>
	<rect x="180" y="120" style="fill:#FFE29E;" width="95" height="145"/>
	<path style="fill:#FFB751;" d="M227.5,140h99.03c10.48,0,20.94-4.08,28.94-12.08c16-16,16-41.94,0-57.94s-41.95-16-57.95,0   l-55.27,15.27L227.5,140z"/>
	<path style="fill:#FFD764;" d="M227.5,40.97l-20,30.003l20,69.027l70.02-70.02c7.42-7.42,11.93-17.69,11.93-29.01   C309.45,18.34,291.1,0,268.47,0C245.84,0,227.5,18.34,227.5,40.97z"/>
	<path style="fill:#FFE29E;" d="M145.55,40.97c0,11.32,4.51,21.59,11.93,29.01l14.27,54.27L227.5,140V40.97   C227.5,18.34,209.16,0,186.53,0C163.9,0,145.55,18.34,145.55,40.97z"/>
	<path style="fill:#FFD764;" d="M99.53,69.98c-16,16-16,41.94,0,57.94c8,8,18.46,12.08,28.94,12.08H180h19.5h28l-70.02-70.02   C141.48,53.98,115.53,53.98,99.53,69.98z"/>
	<rect x="180" y="295" style="fill:#FFD764;" width="95" height="160"/>
</g>















</svg>