<?xml version="1.0" encoding="iso-8859-1"?>
<!-- Uploaded to: SVG Repo, www.svgrepo.com, Generator: SVG Repo Mixer Tools -->
<svg height="800px" width="800px" version="1.1" id="Layer_1" xmlns="http://www.w3.org/2000/svg" xmlns:xlink="http://www.w3.org/1999/xlink" 
	 viewBox="0 0 512 512" xml:space="preserve">
<circle style="fill:#DB4417;" cx="256" cy="256" r="54.056"/>
<g>
	<path style="fill:#4C1D1D;" d="M437.02,74.981C388.667,26.628,324.38,0,256,0S123.333,26.628,74.98,74.981
		C26.628,123.333,0,187.619,0,256s26.628,132.667,74.98,181.019C123.333,485.372,187.62,512,256,512
		c51.867,0,101.82-15.43,144.457-44.624c41.625-28.499,73.666-68.165,92.66-114.708c2.128-5.215-0.374-11.168-5.589-13.297
		c-5.215-2.127-11.168,0.374-13.297,5.589c-35.063,85.92-115.998,142.508-208.032,146.417v-43.903
		c97.628-5.142,176.132-83.648,181.273-181.275h55.212c0.003-0.016,0.007-0.029,0.01-0.045C507.908,265.7,512,261.331,512,256
		C512,187.619,485.372,123.333,437.02,74.981z M491.367,245.801h-43.894c-5.141-97.627-83.646-176.132-181.273-181.274V20.633
		C388.012,25.849,486.151,123.987,491.367,245.801z M384.105,245.801c-4.95-62.746-55.161-112.956-117.906-117.907V84.965
		c86.375,5.097,155.739,74.461,160.835,160.835H384.105z M213.353,245.801c3.828-16.003,16.444-28.62,32.448-32.447v32.447H213.353z
		 M245.801,266.199v32.447c-16.003-3.827-28.62-16.444-32.448-32.447H245.801z M192.563,245.801h-44.19
		c4.841-51.488,45.939-92.586,97.428-97.428v44.19C218.525,196.933,196.933,218.525,192.563,245.801z M192.563,266.199
		c4.369,27.276,25.962,48.867,53.238,53.238v44.19c-51.489-4.842-92.587-45.939-97.428-97.428H192.563z M266.199,266.199h32.448
		c-3.828,16.003-16.444,28.62-32.448,32.447V266.199z M266.199,245.801v-32.447c16.003,3.827,28.62,16.444,32.448,32.447H266.199z
		 M245.801,127.894c-62.744,4.951-112.956,55.161-117.906,117.907H84.965c5.097-86.374,74.46-155.739,160.835-160.835V127.894z
		 M127.895,266.199c4.95,62.745,55.161,112.956,117.906,117.907v42.928c-86.375-5.097-155.739-74.46-160.835-160.835H127.895z
		 M266.199,319.437c27.276-4.37,48.867-25.962,53.238-53.238h44.19c-4.841,51.488-45.939,92.586-97.428,97.428V319.437z
		 M319.437,245.801c-4.369-27.276-25.962-48.867-53.238-53.238v-44.19c51.489,4.842,92.587,45.939,97.428,97.428H319.437z
		 M245.801,20.633v43.894c-97.628,5.141-176.132,83.647-181.274,181.274H20.633C25.849,123.987,123.988,25.849,245.801,20.633z
		 M20.633,266.199h43.894c5.141,97.627,83.646,176.132,181.274,181.273v43.894C123.988,486.151,25.849,388.013,20.633,266.199z
		 M266.199,427.035v-42.928c62.744-4.951,112.956-55.161,117.906-117.907h42.929C421.938,352.574,352.574,421.938,266.199,427.035z"
		/>
	<path style="fill:#4C1D1D;" d="M498.946,294.954c-5.515-1.108-10.901,2.456-12.017,7.977c-0.526,2.603-1.105,5.234-1.722,7.824
		c-1.303,5.479,2.082,10.979,7.562,12.283c0.794,0.189,1.588,0.278,2.369,0.278c4.615,0,8.799-3.155,9.914-7.841
		c0.669-2.814,1.298-5.675,1.871-8.505C508.04,301.451,504.468,296.07,498.946,294.954z"/>
</g>
</svg>